<svg xmlns="http://www.w3.org/2000/svg" width="879.107" height="350.985"><g data-name="Group 267"><path data-name="Path 315" d="M361.6 4.122h-47.039v-.615l-32.38.615v248.6h32.38v-93.465H361.6a77.567 77.567 0 0 0 0-155.135Zm-8.873 127.3h-38.166V31.961h38.166c28.846 0 52.235 22.263 52.235 49.735s-23.389 49.722-52.235 49.722Z" fill="#015177"/><path data-name="Path 316" d="M569.882 144.297s53.6-19.239 52.223-71c0 0 8.7-65.362-83.844-69.786h-70.99V252.72h32.983v-99.261H536.9l78.32 99.261h44.448Zm-33.9-16.19h-36.2V32.523h43.531c56.331 6.872 43.505 52.223 43.505 52.223-5.936 43.06-50.831 43.361-50.831 43.361Z" fill="#015177"/><path data-name="Path 317" d="M769.389 0c-60.6 0-109.718 57.836-109.718 129.18s49.12 129.193 109.718 129.193 109.718-57.85 109.718-129.193S829.974 0 769.389 0Zm0 231.333c-42.13 0-76.278-45.729-76.278-102.153s34.148-102.153 76.278-102.153 76.265 45.73 76.265 102.153-34.134 102.153-76.265 102.153Z" fill="#015177"/><path data-name="Path 318" d="m89.418 238.074 2.8 7.316h81.854l2.7-7.316Z" fill="#018ad3"/><path data-name="Path 319" d="M633.743 258.373h-19.069v65.664s1.073 25.771 25.784 26.844c0 0 28.453 2.958 31.136-23.35v-25.233h-16.373v18.791s-1.074 10.47-6.177 12.879c0 0-11.807 2.683-14.5-4.293a19.7 19.7 0 0 1-1.075-6.714v-32.21h38.127v-13.152h-37.853Z" fill="#3f3f3f"/><path data-name="Path 320" d="M825.669 286.461V252.72h-18.52v98.269h18.52v-49.136s4.567-11.1 14.226-10.3 12.356 4.226 12.356 13.127v46.309h18.506v-57.553s-2.945-14.762-19.855-16.1-23.362 6.978-25.233 9.125Z" fill="#3f3f3f"/><path data-name="Path 321" d="M786.967 323.238c-2.488 6.741-7.356 11.322-12.958 11.322-8.141 0-14.75-9.738-14.75-21.752s6.609-21.74 14.75-21.74c5.445 0 10.208 4.332 12.748 10.785h18.9c-4.19-15.445-16.779-26.662-31.661-26.662-18.31 0-33.153 16.963-33.153 37.891s14.843 37.9 33.153 37.9c15.221 0 28.048-11.753 31.948-27.747Z" fill="#3f3f3f"/><path data-name="Path 322" d="M739.038 318.135a40.211 40.211 0 0 0 .314-5.053c0-20.928-14.843-37.891-33.166-37.891-18.3 0-33.138 16.963-33.138 37.891s14.841 37.9 33.138 37.9c13.848 0 25.692-9.7 30.653-23.454h-19.764c-2.7 4.319-6.557 7.029-10.863 7.029-6.911 0-12.721-7.029-14.319-16.5l28.638.079h18.507Zm-32.826-27.067c6.6 0 12.2 6.373 14.084 15.169h-28.141c1.885-8.796 7.461-15.169 14.057-15.169Z" fill="#3f3f3f"/><path data-name="Path 323" d="m80.937 215.929 3.168 8.3h97.755l3.05-8.3Z" fill="#018ad3"/><path data-name="Path 324" d="m72.456 193.783 3.534 9.228h113.684l3.4-9.228Z" fill="#018ad3"/><path data-name="Path 325" d="m136.509 170.015-2.748 8.8-2.7-8.8H63.347l5.575 14.542h127.531l5.366-14.542Z" fill="#018ad3"/><path data-name="Path 326" d="m143.782 146.731-5.34 17.067h65.65l6.283-17.067Z" fill="#018ad3"/><path data-name="Path 327" d="m54.421 146.731 6.544 17.067h68.217l-5.209-17.067Z" fill="#018ad3"/><g data-name="Group 265" fill="#018ad3"><path data-name="Path 328" d="m220.405 119.521 42.235-114.8h-74.51l-35.862 114.8Z"/><path data-name="Path 329" d="m150.54 125.058-5.026 16.138h66.907l5.942-16.138Z"/></g><g data-name="Group 266" fill="#018ad3"><path data-name="Path 330" d="M115.66 119.521 80.623 4.721H0l43.976 114.8Z"/><path data-name="Path 331" d="m46.11 125.058 6.191 16.138h69.969l-4.921-16.138Z"/></g></g></svg>